<?xml version="1.0" encoding="utf-8"?>
<!-- Svg Vector Icons : http://www.onlinewebfonts.com/icon -->
<!DOCTYPE svg PUBLIC "-//W3C//DTD SVG 1.1//EN" "http://www.w3.org/Graphics/SVG/1.1/DTD/svg11.dtd">
<svg version="1.1" xmlns="http://www.w3.org/2000/svg" xmlns:xlink="http://www.w3.org/1999/xlink" x="0px" y="0px" viewBox="0 0 1000 1000" enable-background="new 0 0 1000 1000" xml:space="preserve">
<metadata> Svg Vector Icons : http://www.onlinewebfonts.com/icon </metadata>
<g><path d="M500,22.1C229.4,22.1,10,239.2,10,507c0,227.8,158.9,418.9,372.9,470.8c-0.1-59.9-0.3-174-0.3-178.2c-0.9-0.5-92.9,52.8-139.8-40.5c-5.7-11.5-17.1-50-45.6-71.6c-1-0.9-22.1-11.5-24-21.9c-0.2-1.5,1.4-4.5,3.4-5.3c2.2-0.8,36.8-14.9,75.5,33.6c11.6,16.2,37.9,78.6,130,40c2.5-9.6,4.2-25.2,24.2-43.1C269.1,674.8,219,628.3,199.6,512.4c-12.1-79.1,11.2-144.8,46.2-177.3c-5.3-6.9-22.8-64.7,4.4-125.8c29.5-5.8,83.5,15.1,131,49c67-24,192.8-17.7,237.8,0c21.4-17.5,97.8-58.4,130.5-48.9c9.6,24.3,23.5,83.1,4.3,125.9c42.7,43.5,54.7,99.6,47,168.6C791.4,608.3,738,678.7,592.7,691c24.2,16.9,46.4,40.1,46.4,79.5c0,42.3,0,143.5,0,201.5C841.9,912.6,990,727,990,507C990,239.2,770.6,22.1,500,22.1L500,22.1z"/></g>
</svg>