<?xml version="1.0" encoding="utf-8"?>
<!-- Svg Vector Icons : http://www.onlinewebfonts.com/icon -->
<!DOCTYPE svg PUBLIC "-//W3C//DTD SVG 1.1//EN" "http://www.w3.org/Graphics/SVG/1.1/DTD/svg11.dtd">
<svg version="1.1" xmlns="http://www.w3.org/2000/svg" xmlns:xlink="http://www.w3.org/1999/xlink" x="0px" y="0px" viewBox="0 0 1000 1000" enable-background="new 0 0 1000 1000" xml:space="preserve">
<metadata> Svg Vector Icons : http://www.onlinewebfonts.com/icon </metadata>
<g><path d="M664.7,460.7l316-269.8c1.6-1.4,3.9-1.8,6-0.8c2,0.9,3.3,3,3.3,5.1v641.1c0,2.3-1.4,4.4-3.7,5.3s-4.7,0.1-6.2-1.7L664.7,460.7z M25.4,157.7c-1.7-1.5-2.5-3.9-1.6-6.2c0.8-2.3,3-3.7,5.3-3.7h943.3c2.3,0,4.4,1.4,5.3,3.7c0.8,2.3,0.1,4.7-1.6,6.2L504.3,557.5c-1,0.8-2.2,1.3-3.6,1.3s-2.6-0.5-3.6-1.3L25.4,157.7z M500.5,601l142.8-121.6L946,843c1.3,1.6,1.7,3.9,0.8,6c-1,2-3,3.2-5.1,3.2h-882c-2.1,0-4.1-1.2-5.1-3.2c-0.9-2-0.6-4.4,0.8-6l302.6-360L500.5,601z"/><path d="M335.3,460.7L19.2,191c-1.6-1.4-3.9-1.8-6-0.8c-2,0.9-3.3,3-3.3,5.1v641.1c0,2.3,1.4,4.4,3.7,5.3c2.3,0.8,4.7,0.1,6.2-1.7L335.3,460.7z"/></g>
</svg>