<?xml version="1.0" encoding="utf-8"?>
<!-- Svg Vector Icons : http://www.onlinewebfonts.com/icon -->
<!DOCTYPE svg PUBLIC "-//W3C//DTD SVG 1.1//EN" "http://www.w3.org/Graphics/SVG/1.1/DTD/svg11.dtd">
<svg version="1.1" xmlns="http://www.w3.org/2000/svg" xmlns:xlink="http://www.w3.org/1999/xlink" x="0px" y="0px" viewBox="0 0 1000 1000" enable-background="new 0 0 1000 1000" xml:space="preserve">
<metadata> Svg Vector Icons : http://www.onlinewebfonts.com/icon </metadata>
<g><path d="M316.3,438.7H132.5C64.9,438.7,10,383.8,10,316.2V132.5C10,64.9,64.9,10,132.5,10h183.8c67.6,0,122.5,54.9,122.5,122.5v183.7C438.8,383.8,383.8,438.7,316.3,438.7z M132.5,91.7c-22.5,0-40.8,18.3-40.8,40.8v183.7c0,22.5,18.3,40.8,40.8,40.8h183.8c22.5,0,40.8-18.3,40.8-40.8V132.5c0-22.5-18.3-40.8-40.8-40.8H132.5z"/><path d="M316.3,990H132.5C64.9,990,10,935.1,10,867.5V683.8c0-67.6,54.9-122.5,122.5-122.5h183.8c67.6,0,122.5,54.9,122.5,122.5v183.8C438.8,935.1,383.8,990,316.3,990z M132.5,642.9c-22.5,0-40.8,18.3-40.8,40.8v183.8c0,22.5,18.3,40.8,40.8,40.8h183.8c22.5,0,40.8-18.3,40.8-40.8V683.8c0-22.5-18.3-40.8-40.8-40.8H132.5z"/><path d="M867.5,438.7H683.8c-67.6,0-122.5-54.9-122.5-122.5V132.5c0-67.6,55-122.5,122.5-122.5h183.7C935.1,10,990,64.9,990,132.5v183.7C990,383.8,935.1,438.7,867.5,438.7z M683.8,91.7c-22.5,0-40.8,18.3-40.8,40.8v183.7c0,22.5,18.3,40.8,40.8,40.8h183.7c22.5,0,40.8-18.3,40.8-40.8V132.5c0-22.5-18.3-40.8-40.8-40.8H683.8z"/><path d="M827.7,990H683.8c-67.6,0-122.5-54.9-122.5-122.5V683.8c0-67.6,55-122.5,122.5-122.5h183.7c67.6,0,122.5,54.9,122.5,122.5v123.3c0,22.6-18.3,40.8-40.8,40.8s-40.8-18.3-40.8-40.8V683.8c0-22.5-18.3-40.8-40.8-40.8H683.8c-22.5,0-40.8,18.3-40.8,40.8v183.8c0,22.5,18.3,40.8,40.8,40.8h143.9c22.6,0,40.8,18.3,40.8,40.8C868.5,971.7,850.2,990,827.7,990z"/></g>
</svg>