<?xml version="1.0" encoding="utf-8"?>
<!-- Svg Vector Icons : http://www.onlinewebfonts.com/icon -->
<!DOCTYPE svg PUBLIC "-//W3C//DTD SVG 1.1//EN" "http://www.w3.org/Graphics/SVG/1.1/DTD/svg11.dtd">
<svg version="1.1" xmlns="http://www.w3.org/2000/svg" xmlns:xlink="http://www.w3.org/1999/xlink" x="0px" y="0px" viewBox="0 0 1000 1000" enable-background="new 0 0 1000 1000" xml:space="preserve">
<metadata> Svg Vector Icons : http://www.onlinewebfonts.com/icon </metadata>
<g><g><path d="M500,10C229.4,10,10,229.3,10,500c0,270.7,219.4,490,490,490c270.6,0,490-219.3,490-490C990,229.3,770.6,10,500,10z M756.6,412.3c0.2,4.9,0.3,9.9,0.3,14.9c0,152.3-116,328.1-328.1,328.1c-65.1,0-125.7-19.1-176.8-51.8c9,1.1,18.2,1.6,27.5,1.6c54,0,103.7-18.4,143.2-49.3c-50.4-1-93-34.3-107.7-80.1c7,1.3,14.2,2,21.7,2c10.5,0,20.7-1.4,30.4-4.1c-52.7-10.6-92.5-57.3-92.5-113.2c0-0.4,0-0.9,0-1.4c15.6,8.6,33.3,13.8,52.3,14.4c-30.9-20.7-51.3-55.9-51.3-96c0-21.1,5.7-40.9,15.6-58c56.8,69.8,141.9,115.7,237.7,120.5c-2-8.4-3-17.2-3-26.3c0-63.7,51.6-115.3,115.3-115.3c33.1,0,63.1,14,84.2,36.4c26.2-5.2,50.9-14.8,73.2-27.9c-8.6,26.9-27,49.5-50.7,63.7c23.3-2.8,45.5-9,66.2-18.1C798.7,375.7,779.1,396.1,756.6,412.3z"/></g><g></g><g></g><g></g><g></g><g></g><g></g><g></g><g></g><g></g><g></g><g></g><g></g><g></g><g></g><g></g></g>
</svg>